<svg enable-background="new 0 0 74 74" height="74" viewBox="0 0 74 74" width="74" xmlns="http://www.w3.org/2000/svg"><g id="Layer_1"><g><g><path d="m57.4 22.5c0 21.2-20.4 36.7-20.4 36.7s-20.4-15.5-20.4-36.7c0-11.3 9.1-20.5 20.4-20.5s20.4 9.2 20.4 20.5z" fill="none" stroke="#000" stroke-linejoin="round" stroke-miterlimit="10" stroke-width="4"/></g><path d="m37 28.9c-3.6 0-6.4-2.9-6.4-6.4s2.8-6.5 6.4-6.5 6.4 2.9 6.4 6.4-2.8 6.5-6.4 6.5z" fill="none" stroke="#000" stroke-linejoin="round" stroke-miterlimit="10" stroke-width="4"/><g><path d="m56.1 48.7c9 2.3 14.9 6.1 14.9 10.5 0 7-15.2 12.8-34 12.8s-34-5.7-34-12.8c0-4.4 5.9-8.3 14.9-10.6" fill="none" stroke="#000" stroke-linejoin="round" stroke-miterlimit="10" stroke-width="4"/></g></g></g><g id="Layer_2" display="none"><g display="inline"><g><g><path d="m37 0c-12.4 0-22.4 10.1-22.4 22.5 0 22 20.4 37.7 21.2 38.4.4.3.8.4 1.2.4s.9-.1 1.2-.4c.9-.7 21.2-16.4 21.2-38.4 0-12.4-10-22.5-22.4-22.5zm0 30.9c-4.7 0-8.4-3.8-8.4-8.5s3.8-8.4 8.4-8.4 8.4 3.8 8.4 8.4c0 4.7-3.7 8.5-8.4 8.5z"/></g></g><g><g><path d="m37 74c-17.4 0-36-5.2-36-14.8 0-5.3 6-9.8 16.5-12.5l1 3.9c-8.2 2.1-13.5 5.5-13.5 8.6 0 5.1 13.1 10.8 32 10.8 18.3 0 32-5.7 32-10.8 0-3.2-5.3-6.5-13.4-8.6l1-3.9c10.4 2.7 16.4 7.2 16.4 12.5 0 9.6-18.5 14.8-36 14.8z"/></g></g></g></g><g id="Layer_3" display="none"><g display="inline"><g><g><path d="m37 0c-12.4 0-22.4 10.1-22.4 22.5 0 22 20.4 37.7 21.2 38.4.4.3.8.4 1.2.4s.9-.1 1.2-.4c.9-.7 21.2-16.4 21.2-38.4 0-12.4-10-22.5-22.4-22.5zm0 30.9c-4.7 0-8.4-3.8-8.4-8.5s3.8-8.4 8.4-8.4 8.4 3.8 8.4 8.4c0 4.7-3.7 8.5-8.4 8.5z" fill="#fe58b5"/></g></g><g><g><path d="m37 74c-17.4 0-36-5.2-36-14.8 0-5.3 6-9.8 16.5-12.5l1 3.9c-8.2 2.1-13.5 5.5-13.5 8.6 0 5.1 13.1 10.8 32 10.8 18.3 0 32-5.7 32-10.8 0-3.2-5.3-6.5-13.4-8.6l1-3.9c10.4 2.7 16.4 7.2 16.4 12.5 0 9.6-18.5 14.8-36 14.8z" fill="#789a98"/></g></g></g></g><g id="Layer_4" display="none"><g display="inline"><g><g><path d="m37 61.2c-.4 0-.9-.1-1.2-.4-.9-.7-21.2-16.4-21.2-38.4 0-12.3 10-22.4 22.4-22.4s22.4 10.1 22.4 22.4c0 22-20.4 37.7-21.2 38.4-.3.3-.8.4-1.2.4zm0-57.2c-10.2 0-18.4 8.3-18.4 18.4 0 17.2 14.1 30.6 18.4 34.2 4.3-3.7 18.4-17.1 18.4-34.2 0-10.1-8.2-18.4-18.4-18.4z" fill="#fe58b5"/></g></g><g><path d="m37 30.9c-4.7 0-8.4-3.8-8.4-8.4 0-4.7 3.8-8.4 8.4-8.4s8.4 3.8 8.4 8.4-3.7 8.4-8.4 8.4zm0-12.9c-2.5 0-4.4 2-4.4 4.4 0 2.5 2 4.4 4.4 4.4s4.4-2 4.4-4.4-1.9-4.4-4.4-4.4z" fill="#fe58b5"/></g><g><g><path d="m37 74c-17.4 0-36-5.2-36-14.8 0-5.3 6-9.8 16.5-12.5l1 3.9c-8.2 2.1-13.5 5.5-13.5 8.6 0 5.1 13.1 10.8 32 10.8 18.3 0 32-5.7 32-10.8 0-3.2-5.3-6.5-13.4-8.6l1-3.9c10.4 2.7 16.4 7.2 16.4 12.5 0 9.6-18.5 14.8-36 14.8z" fill="#789a98"/></g></g></g></g></svg>