<svg id="Layer_1" enable-background="new 0 0 32 32" height="512" viewBox="0 0 32 32" width="512" xmlns="http://www.w3.org/2000/svg"><g><path d="m26.502 21.477-3.796-2.695c-.351-.238-.67-.415-.974-.539-.827-.338-1.675-.262-2.309.129-.567.262-1.303 1.061-1.792 1.54-1.803-1.133-4.336-3.665-5.556-5.558.45-.48 1.237-1.218 1.509-1.748.251-.413.379-.852.379-1.305 0-.344-.079-.705-.231-1.059-.135-.328-.319-.653-.561-.988l-2.643-3.725c-.292-.422-.679-.746-1.138-.958-.408-.195-.87-.299-1.335-.299-2.97.032-5.139 3.318-5.053 6.138.007 2.915 1.459 5.674 3.243 8.189 1.937 2.679 4.452 5.191 7.142 7.142 3.147 2.231 7.095 4.247 10.8 2.772 1.782-.737 3.514-2.586 3.526-4.638 0-.416-.082-.823-.263-1.273-.195-.446-.517-.827-.948-1.125zm-.886 3.236c-.424.91-1.28 1.685-2.155 2.041-2.787 1.178-6.44-.732-8.952-2.551-2.534-1.838-4.898-4.199-6.721-6.72-1.544-2.194-2.862-4.561-2.882-7.073.009-1.341.44-2.495 1.441-3.433.547-.539 1.106-.8 1.708-.8.183 0 .361.039.526.118.162.074.283.175.388.325.272.427 2.897 3.969 3.008 4.358.075.175.083.284.083.323 0 .099-.034.205-.117.342-.198.378-1.006 1.13-1.322 1.481-.543.497-.646 1.312-.25 2.104.241.442.635.988 1.178 1.629 1.086 1.277 2.439 2.629 3.577 3.588.619.523 1.172.915 1.607 1.145.636.373 1.58.407 2.109-.201.333-.313 1.161-1.216 1.517-1.361.34-.207.428-.115.652-.023.352.08 4.01 2.783 4.398 3.031.197.136.264.254.286.303.079.197.114.363.114.537.001.283-.064.565-.193.837z"/><path d="m25.101 6.893c-2.514-2.51-5.859-3.893-9.42-3.893-.552 0-1 .447-1 1s.448 1 1 1c3.027 0 5.87 1.175 8.006 3.309 2.137 2.131 3.313 4.97 3.313 7.991 0 .553.448 1 1 1s1-.447 1-1c0-3.556-1.385-6.897-3.899-9.407z"/><path d="m15.681 7.837c2.266 0 4.395.88 5.996 2.479 1.6 1.597 2.481 3.723 2.481 5.984 0 .553.448 1 1 1s1-.447 1-1c0-2.797-1.09-5.425-3.068-7.4s-4.609-3.062-7.409-3.062c-.552 0-1 .447-1 1s.448.999 1 .999z"/><path d="m15.681 10.675c1.505 0 2.921.585 3.985 1.648 1.064 1.062 1.65 2.475 1.65 3.977 0 .553.448 1 1 1s1-.447 1-1c0-2.037-.794-3.952-2.237-5.393-1.442-1.439-3.359-2.232-5.398-2.232-.552 0-1 .447-1 1s.448 1 1 1z"/></g></svg>